<svg width="986.4" height="188.0775" xmlns="http://www.w3.org/2000/svg" xmlns:xlink="http://www.w3.org/1999/xlink">
 <metadata>2020-12-27T19:46:25.000629image/svg+xmlMatplotlib v3.3.2, https://matplotlib.org/</metadata>
 <defs>
  <style type="text/css">*{stroke-linecap:butt;stroke-linejoin:round;}</style>
 </defs>
 <defs>
  <clipPath id="pf3221e57f7">
   <rect id="svg_1" y="25.3575" x="7.2" width="972" height="155.52"/>
  </clipPath>
 </defs>
 <g>
  <title>Layer 1</title>
  <g id="figure_1">
   <g id="patch_1">
    <path id="svg_2" fill="none" d="m0,188.0775l986.4,0l0,-188.0775l-986.4,0l0,188.0775z"/>
   </g>
   <g id="axes_1">
    <g id="LineCollection_1">
     <path id="svg_3" fill="none" stroke="#f5df95" stroke-width="2" d="m461.92084,103.1175l256.93598,0" clip-path="url(#pf3221e57f7)"/>
    </g>
    <g id="LineCollection_2">
     <path id="svg_4" fill="none" stroke="#848ea3" stroke-width="2" d="m51.38182,154.9575l883.63636,0" clip-path="url(#pf3221e57f7)"/>
    </g>
    <g id="patch_2">
     <path id="svg_5" fill="#848ea3" stroke="#848ea3" stroke-width="2" d="m218.39021,154.9575l-8.84195,12.96l0,0l-158.16644,0l0,-25.92l158.16644,0l0,0l8.84195,12.96z" clip-path="url(#pf3221e57f7)"/>
    </g>
    <g id="patch_3">
     <path id="svg_6" fill="#848ea3" stroke="#848ea3" stroke-width="2" d="m585.36182,154.9575l-8.84195,12.96l0,0l-120.74315,0l0,-25.92l120.74315,0l0,0l8.84195,12.96z" clip-path="url(#pf3221e57f7)"/>
    </g>
    <g id="patch_4">
     <path id="svg_7" fill="#f5df95" stroke="#f5df95" stroke-width="2" d="m585.36182,103.1175l-8.84195,12.96l0,0l-114.59903,0l0,-25.92l114.59903,0l0,0l8.84195,12.96z" clip-path="url(#pf3221e57f7)"/>
    </g>
    <g id="patch_5">
     <path id="svg_8" fill="#f5df95" stroke="#f5df95" stroke-width="2" d="m718.85682,103.1175l-8.84195,12.96l0,0l-55.39204,0l0,-25.92l55.39204,0l0,0l8.84195,12.96z" clip-path="url(#pf3221e57f7)"/>
    </g>
    <g id="patch_6">
     <path id="svg_9" fill="#848ea3" stroke="#848ea3" stroke-width="2" d="m935.01818,154.9575l-8.84195,12.96l0,0l-271.5534,0l0,-25.92l271.5534,0l0,0l8.84195,12.96z" clip-path="url(#pf3221e57f7)"/>
    </g>
    <g id="line2d_1">
     <path id="svg_10" fill="none" stroke="#1f77b4" stroke-linecap="square" stroke-width="1.5" d="m498.22701,70.7175" clip-path="url(#pf3221e57f7)"/>
     <defs>
      <path stroke="#f06d54" id="m5d855ca0dc" d="m0,10l15,-10l-15,-10"/>
     </defs>
     <g id="svg_11" clip-path="url(#pf3221e57f7)">
      <use id="svg_12" fill="#f06d54" stroke="#f06d54" y="70.7175" xlink:href="#m5d855ca0dc" x="498.22701"/>
     </g>
    </g>
    <g id="line2d_2">
     <path id="svg_13" fill="none" stroke="#ff7f0e" stroke-linecap="square" stroke-width="1.5" d="m609.93831,70.7175" clip-path="url(#pf3221e57f7)"/>
     <g id="svg_14" clip-path="url(#pf3221e57f7)">
      <use id="svg_15" fill="#f06d54" stroke="#f06d54" y="70.7175" xlink:href="#m5d855ca0dc" x="609.93831"/>
     </g>
    </g>
    <g id="line2d_3">
     <path id="svg_16" fill="none" stroke="#2ca02c" stroke-linecap="square" stroke-width="1.5" d="m721.6496,70.7175" clip-path="url(#pf3221e57f7)"/>
     <defs>
      <path stroke="#f06d54" id="m193926fcd9" d="m0,-10l-15,10l15,10"/>
     </defs>
     <g id="svg_17" clip-path="url(#pf3221e57f7)">
      <use id="svg_18" fill="#f06d54" stroke="#f06d54" y="70.7175" xlink:href="#m193926fcd9" x="721.6496"/>
     </g>
    </g>
    <g id="text_1">
     <!-- Title -->
     <g id="svg_19" fill="#00008b" transform="translate(7.2 19.3575)scale(0.16 -0.16)">
      <defs>
       <path id="DejaVuSerif-Bold-84" d="m18.10938,0l0,5.90625l9.67187,0l0,60.3125l-19.96875,0l0,-11.53125l-6.6875,0l0,18.21875l72.26563,0l0,-18.21875l-6.59375,0l0,11.53125l-20.10938,0l0,-60.3125l9.70313,0l0,-5.90625l-38.28125,0z"/>
       <path id="DejaVuSerif-Bold-105" d="m9.1875,66.60938q0,3.95312 2.73438,6.65625q2.73437,2.71875 6.6875,2.71875q3.85937,0 6.5625,-2.71875q2.70312,-2.70313 2.70312,-6.65625q0,-3.85938 -2.70312,-6.57813q-2.70313,-2.70312 -6.5625,-2.70312q-3.95313,0 -6.6875,2.6875q-2.73438,2.6875 -2.73438,6.59375zm18.89063,-60.70313l7.42187,0l0,-5.90625l-32.07812,0l0,5.90625l7.375,0l0,40.09375l-7.375,0l0,5.90625l24.65625,0l0,-46z"/>
       <path id="DejaVuSerif-Bold-116" d="m9.90625,46l-7.51562,0l0,5.90625l7.51562,0l0,16.10938l17.29688,0l0,-16.10938l14.40625,0l0,-5.90625l-14.40625,0l0,-31.79687q0,-6.78125 1.0625,-8.4375q1.07812,-1.65625 3.90625,-1.65625q3.125,0 4.64062,2.09375q1.51563,2.09375 1.60938,6.5l7.28125,0q-0.4375,-7.8125 -4.28125,-10.96875q-3.82813,-3.15626 -13.20313,-3.15626q-10.6875,0 -14.5,3.34376q-3.8125,3.35937 -3.8125,12.28125l0,31.79687z"/>
       <path id="DejaVuSerif-Bold-108" d="m28.07813,5.90625l7.42187,0l0,-5.90625l-32.07812,0l0,5.90625l7.375,0l0,64.21875l-7.375,0l0,5.85938l24.65625,0l0,-70.07813z"/>
       <path id="DejaVuSerif-Bold-101" d="m40.09375,29.29688q0,10.25 -1.90625,14.375q-1.90625,4.125 -6.5,4.125q-4.4375,0 -6.375,-4.04688q-1.92187,-4.04687 -1.92187,-13.57812l0,-0.875l16.70312,0zm18.98438,-5.8125l-35.6875,0l0,-0.39063q0,-10.0625 3.01562,-14.53125q3.03125,-4.45312 9.78125,-4.45312q5.60938,0 9.07813,2.96875q3.46875,2.98437 4.4375,8.64062l8.10937,0q-2.09375,-8.82812 -8.34375,-12.98437q-6.25,-4.15626 -17.48437,-4.15626q-13.48438,0 -20.6875,7.10938q-7.1875,7.10938 -7.1875,20.29688q0,12.89062 7.35937,20.10937q7.375,7.23438 20.51563,7.23438q12.89062,0 19.76562,-7.59375q6.89063,-7.59375 7.32813,-22.25z"/>
      </defs>
      <use id="svg_20" xlink:href="#DejaVuSerif-Bold-84"/>
      <use id="svg_21" xlink:href="#DejaVuSerif-Bold-105" x="74.41406"/>
      <use id="svg_22" xlink:href="#DejaVuSerif-Bold-116" x="112.40234"/>
      <use id="svg_23" xlink:href="#DejaVuSerif-Bold-108" x="158.59375"/>
      <use id="svg_24" xlink:href="#DejaVuSerif-Bold-101" x="196.58203"/>
     </g>
    </g>
   </g>
  </g>
  <path d="m307.5,101.83875c0,-1 3,2 5,5c2,3 2.48627,5.82375 3,8c0.22977,0.97325 1.2565,1.203 2,0c1.66251,-2.68999 2,-7 4,-11c3,-6 8.07764,-14.55802 12,-20c3.30762,-4.58908 6.52011,-8.40968 10,-12c4.45642,-4.59786 7.79489,-8.22021 11,-11c3.77728,-3.27601 7,-6 10,-9l3,-4l1,0" id="svg_25" opacity="undefined" stroke="#000" fill="none"/>
  <path d="m147.5,54.83875c-1,-1 -0.69344,-2.45881 -2,-3c-0.92387,-0.38268 -1.07613,0.38268 -2,0c-1.30656,-0.54119 -4,-1 -6,-1c-2,0 -4.297,1.61384 -7,4c-3.35266,2.95967 -5,5 -7,9c-1,2 -1,4 -1,8c0,4 -0.66251,7.31001 1,10c1.48699,2.40601 3,3 4,4c1,1 2,2 3,2c3,0 5.186,-0.69255 7,-2c1.14726,-0.8269 2.09789,-2.82443 4,-4c0.85065,-0.52573 0.61731,-1.07612 1,-2c0.5412,-1.30656 1,-2 1,-3c0,-1 0,-2 -1,-2l0,0l0,0" id="svg_26" opacity="undefined" stroke="#000" fill="none"/>
  <path d="m154.5,75.83875c1,-1 3.02675,-0.77025 4,-1c2.17625,-0.51374 3.69344,-2.4588 5,-3c0.92387,-0.38268 1.61731,-1.07612 2,-2c0.5412,-1.30656 1,-2 -1,-3c-2,-1 -1.82375,-2.48626 -4,-3c-1.9465,-0.45951 -2,0 -3,0c0,0 -2.75563,2.01498 -3,4c-0.50377,4.09222 -1,5 -1,8c0,2 1,4 1,6c0,1 1.02675,1.77025 2,2c2.17625,0.51374 1.87856,2.49346 5,3c2.96126,0.48055 5,0 5,0c2,-1 4.4588,-1.69344 5,-3c0.38269,-0.92388 1,-2 1,-4c0,0 0,-2 0,-3l0,-1l0,0l0,-1" id="svg_27" opacity="undefined" stroke="#000" fill="none"/>
  <path d="m188.5,80.83875c0,-1 -1.4588,-0.69344 -2,-2c-0.76537,-1.84776 -1.48625,-3.82375 -2,-6c-0.4595,-1.9465 -1,-3 -1,-5c0,0 -0.38269,-2.07612 0,-3c0.5412,-1.30656 1,-1 3,-3c0,0 2,0 4,0c1,0 4.0535,-0.45951 6,0c2.17625,0.51374 3.85274,1.1731 5,2c1.814,1.30745 3.07613,2.61732 4,3c1.30656,0.5412 2.4588,3.69344 3,5c0.76537,1.84776 0.77025,4.02675 1,5c0.51375,2.17625 1,3 1,5l0,1l0,1l1,0" id="svg_28" opacity="undefined" stroke="#000" fill="none"/>
  <path d="m222.5,71.83875c0,0 1.02675,0.22975 2,0c2.17625,-0.51374 4.88152,-2.19028 8,-4c1.93399,-1.12234 4.82443,-1.09789 6,-3c0.52573,-0.85065 0,-1 0,-2c0,-1 -0.82375,-2.48626 -3,-3c-0.97325,-0.22975 -3,0 -5,-1c0,0 -1,0 -2,0c0,0 -1.2565,0.797 -2,2c-1.66251,2.68999 -1.49345,3.87856 -2,7c-0.16019,0.98709 -1,3 -1,4c0,2 -0.4595,4.0535 0,6c0.51375,2.17625 0.29289,3.29289 1,4c0.70711,0.70711 1.07613,0.61732 2,1c1.30656,0.5412 4.31001,1.66251 7,0c1.203,-0.7435 3.07613,-1.61732 4,-2c1.30656,-0.5412 3.4588,-2.69344 4,-4c0.38269,-0.92388 1,-1 1,-2l0,-1l0,-2" id="svg_29" opacity="undefined" stroke="#000" fill="none"/>
  <path d="m270.5,43.83875c0,-2 -1.49347,-4.87856 -2,-8c-0.16019,-0.98709 -0.30655,-3.45881 1,-4c0.92389,-0.38268 4,-2 5,-2c2,0 3.13065,2.12872 4,5c1.04483,3.45084 3.63345,6.02248 4,9c0.50378,4.09221 1,8 1,12c0,3 -0.48627,5.82375 -1,8c-0.22977,0.97325 -0.4588,2.69344 -1,4c-0.38269,0.92388 -1.70709,2.29289 -1,3c1.41422,1.41422 5.54916,-1.95517 9,-3c2.87128,-0.86935 6,0 9,-1l1,0" id="svg_30" opacity="undefined" stroke="#000" fill="none"/>
 </g>
</svg>