<?xml version="1.0" encoding="UTF-8" standalone="no"?>
<!-- Created with Inkscape (http://www.inkscape.org/) -->

<svg
   xmlns:dc="http://purl.org/dc/elements/1.1/"
   xmlns:cc="http://creativecommons.org/ns#"
   xmlns:rdf="http://www.w3.org/1999/02/22-rdf-syntax-ns#"
   xmlns:svg="http://www.w3.org/2000/svg"
   xmlns="http://www.w3.org/2000/svg"
   xmlns:sodipodi="http://sodipodi.sourceforge.net/DTD/sodipodi-0.dtd"
   xmlns:inkscape="http://www.inkscape.org/namespaces/inkscape"
   width="29.36875mm"
   height="30.691668mm"
   viewBox="0 0 29.36875 30.691668"
   version="1.1"
   id="svg8"
   inkscape:version="0.92.5 (2060ec1f9f, 2020-04-08)"
   sodipodi:docname="logo.svg">
  <defs
     id="defs2" />
  <sodipodi:namedview
     id="base"
     pagecolor="#ffffff"
     bordercolor="#666666"
     borderopacity="1.0"
     inkscape:pageopacity="0.0"
     inkscape:pageshadow="2"
     inkscape:zoom="2"
     inkscape:cx="313.75"
     inkscape:cy="-0.76400395"
     inkscape:document-units="mm"
     inkscape:current-layer="layer1"
     showgrid="false"
     inkscape:snap-global="false"
     fit-margin-top="0"
     fit-margin-left="0"
     fit-margin-right="0"
     fit-margin-bottom="0"
     inkscape:window-width="1920"
     inkscape:window-height="1043"
     inkscape:window-x="1920"
     inkscape:window-y="0"
     inkscape:window-maximized="1" />
  <metadata
     id="metadata5">
    <rdf:RDF>
      <cc:Work
         rdf:about="">
        <dc:format>image/svg+xml</dc:format>
        <dc:type
           rdf:resource="http://purl.org/dc/dcmitype/StillImage" />
        <dc:title></dc:title>
      </cc:Work>
    </rdf:RDF>
  </metadata>
  <g
     inkscape:label="Layer 1"
     inkscape:groupmode="layer"
     id="layer1"
     transform="translate(-84.67009,-103.14341)">
    <path
       style="fill:#000000;stroke-width:0.26458335"
       d="m 96.658948,131.97383 c -2.16446,-0.46585 -3.93361,-1.42787 -5.50253,-2.99212 -2.0298,-2.02377 -2.93124,-3.86885 -3.04875,-6.90674 0.11997,-2.23472 0.071,-2.48626 0.98407,-4.38456 1.08433,-2.25441 2.44066,-3.43846 4.77165,-4.57947 1.32701,-0.64957 1.86482,-0.91008 4.31244,-1.01168 l 2.707492,-0.003 0.27296,-1.32292 c 0.15013,-0.7276 0.30097,-1.8587 0.33521,-2.51354 l 0.0623,-1.19062 1.25728,-0.0807 1.25727,-0.0807 -0.92655,2.55962 c -0.50959,1.40779 -0.92166,2.69425 -0.91569,2.85879 0.006,0.16454 0.57598,0.56369 1.2667,0.887 1.77015,0.82857 3.67204,2.81031 4.64127,4.83612 1.62656,3.39973 1.19016,7.3187 -1.14378,10.27135 -2.33265,2.95103 -6.59303,4.45734 -10.331292,3.65276 z m 7.342192,-19.40589 c -1.20634,-0.12938 -1.26149,-0.45078 -0.17385,-1.01322 0.45008,-0.23275 0.75794,-0.48358 0.68412,-0.5574 -0.0738,-0.0738 -0.37472,-0.006 -0.66866,0.1518 -0.87094,0.46612 -0.96733,0.33026 -0.28461,-0.40119 1.41476,-1.51572 3.68508,-2.16073 5.95023,-1.69048 1.63468,0.33935 1.80108,0.71582 0.77151,1.7454 -1.29422,1.29422 -3.8831,2.02201 -6.27874,1.76509 z m -6.166272,-1.76084 c -0.7357,-0.34258 -1.79217,-1.14509 -2.34771,-1.78335 -1.03425,-1.18825 -2.98437,-4.89773 -2.71592,-5.16617 0.0821,-0.0821 0.78206,0.056 1.55547,0.30684 4.22457,1.37026 6.813852,4.13296 6.192782,6.60752 -0.21322,0.84954 -0.915952,0.85875 -2.684622,0.0352 z m 2.05011,-0.87808 c -0.29473,-0.40856 -1.04066,-1.21909 -1.65763,-1.80117 -0.96142,-0.90706 -0.89842,-0.78727 0.44073,0.83798 1.519462,1.8441 2.295432,2.45828 1.2169,0.96319 z"
       id="path3724"
       inkscape:connector-curvature="0"
       sodipodi:nodetypes="cccccccccccccccccccccsccccccsccscccccc" />
  </g>
</svg>
