<?xml version="1.0" encoding="UTF-8" standalone="no"?>
<!-- Created with Inkscape (http://www.inkscape.org/) -->

<svg
   xmlns:dc="http://purl.org/dc/elements/1.1/"
   xmlns:cc="http://creativecommons.org/ns#"
   xmlns:rdf="http://www.w3.org/1999/02/22-rdf-syntax-ns#"
   xmlns:svg="http://www.w3.org/2000/svg"
   xmlns="http://www.w3.org/2000/svg"
   xmlns:sodipodi="http://sodipodi.sourceforge.net/DTD/sodipodi-0.dtd"
   xmlns:inkscape="http://www.inkscape.org/namespaces/inkscape"
   width="29.36875mm"
   height="30.691668mm"
   viewBox="0 0 29.36875 30.691668"
   version="1.1"
   id="svg8"
   sodipodi:docname="logo2.svg"
   inkscape:version="0.92.5 (2060ec1f9f, 2020-04-08)">
  <defs
     id="defs2" />
  <sodipodi:namedview
     id="base"
     pagecolor="#ffffff"
     bordercolor="#666666"
     borderopacity="1.0"
     inkscape:pageopacity="0.0"
     inkscape:pageshadow="2"
     inkscape:zoom="2.8284271"
     inkscape:cx="106.22558"
     inkscape:cy="16.162136"
     inkscape:document-units="mm"
     inkscape:current-layer="layer1"
     showgrid="false"
     inkscape:snap-global="false"
     fit-margin-top="0"
     fit-margin-left="0"
     fit-margin-right="0"
     fit-margin-bottom="0"
     inkscape:window-width="1920"
     inkscape:window-height="1043"
     inkscape:window-x="1920"
     inkscape:window-y="0"
     inkscape:window-maximized="1" />
  <metadata
     id="metadata5">
    <rdf:RDF>
      <cc:Work
         rdf:about="">
        <dc:format>image/svg+xml</dc:format>
        <dc:type
           rdf:resource="http://purl.org/dc/dcmitype/StillImage" />
        <dc:title></dc:title>
      </cc:Work>
    </rdf:RDF>
  </metadata>
  <g
     inkscape:label="Layer 1"
     inkscape:groupmode="layer"
     id="layer1"
     transform="translate(-84.67009,-103.14341)">
    <path
       id="path3724"
       transform="matrix(0.26458333,0,0,0.26458333,84.67009,103.14341)"
       style="fill:#000000;stroke-width:1.00000012"
       d="m 31.257812,2.6152344 c -0.337307,-0.020111 -0.561097,0.00641 -0.638671,0.083984 -1.014615,1.0145744 6.354714,15.0343672 10.263671,19.5253902 2.099679,2.412322 6.092449,5.445444 8.873047,6.740235 6.684737,3.11263 9.340614,3.078047 10.146485,-0.132813 C 62.249695,19.479382 52.464926,9.0383085 36.498047,3.859375 34.305704,3.1483325 32.269793,2.6755663 31.257812,2.6152344 Z m 42.058594,11.6132816 -4.751953,0.304687 -4.751953,0.304688 -0.236328,4.5 c -0.129411,2.474985 -0.698205,6.750015 -1.265625,9.5 l -1.03125,5 -10.234375,0.01172 c -9.250847,0.384 -11.283357,1.367198 -16.298828,3.822266 -8.810041,4.312479 -13.93692,8.787989 -18.035156,17.308594 -3.450974,7.174677 -3.26534,8.12608 -3.71875,16.572265 0.444113,11.481789 3.851752,18.454622 11.523437,26.103516 1.055605,1.052464 2.136416,2.029017 3.244141,2.93945 0.0042,-0.0102 0.0059,-0.0177 0.0078,-0.0254 -0.0022,-0.009 -0.0084,-0.0105 -0.0098,-0.0215 -0.0028,-0.0227 0.01399,-0.0429 0.02344,-0.0625 0.0015,-0.004 0.003,-0.004 0.0059,-0.008 0.0027,-0.0129 0.0044,-0.0259 0.01172,-0.041 5.52e-4,-0.001 0.0015,0.005 0.002,0.004 0.0068,-0.0189 0.01002,-0.0385 0.01758,-0.0566 0.0036,-0.01 0.01159,-0.023 0.01563,-0.0215 0.0027,-0.009 0.0039,-0.0188 0.0078,-0.0273 0.0035,-0.007 0.0087,-0.0121 0.01367,-0.0195 0.0011,-0.003 0.0029,-0.005 0.0039,-0.008 2.06e-4,9.4e-4 -3.33e-4,0.002 0,0.004 0.0013,-9.2e-4 0.0025,-0.004 0.0039,-0.004 0.0024,-0.0113 0.0031,-0.0216 0.0059,-0.0332 0.0024,-0.008 0.0067,-0.0178 0.0098,-0.0254 0.0064,0.034 -0.0024,-0.005 0.0078,-0.043 0.0035,-0.0124 0.01,-0.0225 0.01563,-0.0332 v -0.002 c 0.0066,-0.0597 0.0054,-0.0493 0.02734,-0.0938 0.0049,-0.0387 0.0075,-0.08633 0.002,-0.0547 0.0061,-0.0114 0.01353,-0.0209 0.01953,-0.03125 -0.0021,-0.02544 -0.0032,-0.02448 0.0039,-0.07813 0.0062,-0.01144 0.01153,-0.02235 0.01758,-0.0332 -0.0019,-0.02491 -0.0035,-0.02378 0.002,-0.07227 0.0058,-0.0111 0.01182,-0.02433 0.01758,-0.03711 v -0.002 c 6.68e-4,-0.01823 5.31e-4,-0.03706 0.0059,-0.05273 0.0031,-0.01105 0.01018,-0.01955 0.01563,-0.0293 2e-6,-0.0015 0.0019,-0.0025 0.002,-0.0039 3.49e-4,-0.0294 0.0097,-0.05748 0.02148,-0.08398 6.45e-4,-0.01145 8.35e-4,-0.02281 0.0039,-0.03516 0.0038,-0.01447 0.01111,-0.02682 0.01758,-0.03906 0.0012,-0.01617 0.0015,-0.03006 0.0059,-0.04687 0.01541,-0.05196 0.01563,-0.04175 0.01758,-0.03906 0.0097,-0.03262 0.02564,-0.07039 0.0059,-0.06445 0.0067,-0.01054 0.01478,-0.02194 0.02148,-0.0332 -0.0012,0.0036 0.0033,-0.0059 0.0059,-0.0098 0.0022,-0.0048 0.0052,-0.0092 0.0078,-0.01367 v -0.002 c -3.16e-4,-0.0048 4.67e-4,-0.0014 0,-0.0078 0.0062,-0.0842 -0.0016,-0.04105 0.03906,-0.126953 0.01283,-0.01624 0.02512,-0.03319 0.03906,-0.04687 l 0.002,-0.002 c 0.0029,-0.01 5.1e-5,-0.01776 0.0078,-0.03516 0.0049,-0.01134 0.01348,-0.03837 0.01953,-0.0293 0.0042,-0.0086 0.0077,-0.02059 0.01758,-0.03516 0.0049,-0.01384 0.0016,-0.01699 0.0078,-0.03125 3.2e-5,-0.0017 -4.2e-5,-0.0028 0,-0.0039 5.1e-5,-0.008 -2.7e-5,-0.01684 0,-0.02539 0.0079,-0.02646 0.0121,-0.05438 0.02344,-0.08008 0.0037,-0.0074 0.01101,-0.01283 0.01758,-0.01953 6.37e-4,-0.01404 2.23e-4,-0.02762 0.0039,-0.04102 0.006,-0.02268 0.01683,-0.0436 0.0293,-0.0625 0.0088,-0.01461 0.0208,-0.03074 0.03125,-0.03516 0.0071,-0.02281 0.01151,-0.06129 0.0098,-0.03906 0.0026,-0.004 0.0044,-0.005 0.0078,-0.0098 0.0067,-0.01872 0.009,-0.03565 0.0098,-0.03711 4.95e-4,-9.45e-4 0.0029,-2.65e-4 0.0039,0 0.0036,-0.01512 0.006,-0.02854 0.0098,-0.04102 0.0034,-0.0076 0.0016,-0.03112 0.0098,-0.02734 -0.0029,-0.03962 0.0057,-0.07716 0.02539,-0.111328 -0.0029,-0.0421 -0.005,-0.08346 0.01367,-0.123047 0.0016,-0.0036 0.004,-0.0066 0.0059,-0.0098 -2.96e-4,-0.0029 2.48e-4,-0.0043 0,-0.0078 -0.0044,-0.04591 0.0049,-0.0849 0.02344,-0.125 6.8e-5,-0.0024 -1.53e-4,-0.0054 0,-0.0078 7.3e-4,-0.01156 0.0034,-0.02385 0.0039,-0.03711 -0.0012,-4.41e-4 2.48e-4,-0.003 0,-0.0039 -0.001,-0.0039 0.0022,-0.0096 0.002,-0.01563 -0.0023,-9.47e-4 -0.0016,-9.36e-4 -0.0039,-0.002 -0.002,-0.001 0.0033,-0.0071 0.0039,-0.01172 -0.0047,-0.0077 -0.01143,-0.0146 -0.01367,-0.02344 -0.01314,-0.05186 0.0286,-0.08436 0.06055,-0.113281 0,0 0,-0.002 0,-0.002 0.0028,-0.0054 0.0044,-0.003 0.0059,-0.0039 0,0 0,-0.002 0,-0.002 0.0038,-0.0137 0.0086,-0.05505 0.0078,-0.02734 0.0051,-0.0016 0.01048,-0.0023 0.01563,-0.0039 0.0068,-0.01194 0.01204,-0.02706 0.01758,-0.03125 4.72e-4,-0.0054 0.003,-0.01032 0.0039,-0.01563 -0.0092,0.0015 -0.01803,0.0054 -0.02734,0.0059 -0.01134,6.05e-4 0.0064,-0.02186 0.0098,-0.0332 0.01625,-0.04913 0.0377,-0.09659 0.05078,-0.146484 0.01813,-0.06945 0.05485,-0.102201 0.09375,-0.119141 0.05727,-0.04944 0.100797,-0.278177 0.0957,-0.525391 -0.0053,-0.253984 0.01298,-0.493454 0.03906,-0.53125 0.02608,-0.0378 0.07435,-0.352749 0.107422,-0.699218 0.03326,-0.346205 0.07329,-0.648027 0.08984,-0.671875 0.01663,-0.02646 0.07951,-0.380484 0.140625,-0.791016 0.06119,-0.41057 0.320876,-1.357878 0.576172,-2.105469 l 0.46289,-1.359375 1.019532,-1.46289 c 0.979929,-1.407043 1.598087,-2.140108 1.96875,-2.337891 0.09604,-0.0514 0.468903,-0.342951 0.828124,-0.646484 0.362041,-0.305764 0.857779,-0.626959 1.111329,-0.722657 1.400965,-0.528907 1.827538,-0.658919 2.576171,-0.779297 0.453597,-0.07332 0.843038,-0.158083 0.865235,-0.189453 0.0223,-0.03401 0.08388,-0.0158 0.136719,0.03711 0.05265,0.05216 0.115302,0.06331 0.140625,0.0293 0.02532,-0.0378 0.237019,-0.04278 0.46875,-0.01367 0.438905,0.05216 1.36531,0.169111 1.703125,0.214844 0.225789,0.03401 2.277921,0.602827 2.49414,0.695312 0.206514,0.08844 0.229571,0.02649 0.277344,-0.826172 0.02343,-0.41794 0.05179,-0.7746 0.06445,-0.792969 0.01247,-0.0189 0.06042,-0.425582 0.105469,-0.904297 0.118866,-1.263288 0.421842,-2.804572 0.601562,-3.064453 0.04849,-0.0703 0.06239,-0.152979 0.03125,-0.183593 -0.03061,-0.03402 -0.01637,-0.146758 0.03125,-0.259766 0.04808,-0.113386 0.216865,-0.545832 0.375,-0.960938 0.355805,-0.933675 1.112539,-2.230571 1.697266,-2.908203 0.57473,-0.666066 1.035551,-0.887255 1.521484,-0.728515 0.906082,0.296315 1.39592,0.929087 1.433594,1.855468 0.02797,0.687232 -0.09117,1.013673 -0.78125,2.148438 -0.626336,1.030072 -0.86339,1.585847 -0.757812,1.775391 0.04309,0.07748 0.458168,0.743196 0.921875,1.480468 0.463702,0.737273 1.461065,2.359107 2.216797,3.603516 l 1.375,2.261719 0.482421,-0.04492 c 0.265626,-0.02646 0.650193,-0.13529 0.853516,-0.244141 0.203376,-0.109228 0.438145,-0.200038 0.523437,-0.201172 0.08519,-0.001 0.276926,-0.0932 0.423829,-0.205078 0.360302,-0.273638 0.33924,-0.339483 -0.517579,-1.701172 -1.470512,-2.336995 -2.044176,-3.389097 -2.021484,-3.707031 0.02835,-0.396926 0.314747,-0.75513 0.664063,-0.830078 0.436259,-0.09335 0.669905,0.189293 1.933593,2.339844 0.596353,1.014727 1.185959,1.98447 1.310547,2.15625 0.213052,0.294047 0.237352,0.303776 0.41211,0.148437 0.328478,-0.290645 1.268208,-1.915741 1.269531,-2.195312 9.07e-4,-0.182929 -0.351464,-0.824009 -1.304688,-2.378907 -0.71763,-1.170462 -1.348726,-2.25672 -1.404296,-2.414062 -0.125632,-0.355654 0.03032,-0.886277 0.318359,-1.083984 0.33086,-0.22715 0.660537,-0.133933 0.96875,0.27539 0.227112,0.301607 1.650825,2.581632 1.916015,3.06836 0.06652,0.122078 0.09262,0.120918 0.105469,0.002 0.0189,-0.154961 0.02969,-0.204102 0.123047,-0.373047 0.02646,-0.04535 0.0412,-0.278977 0.03516,-0.517578 -0.0033,-0.23811 0.02521,-0.80698 0.06641,-1.265625 0.0412,-0.458646 0.04774,-1.2794 0.01563,-1.824219 -0.03024,-0.544781 -0.0463,-1.011635 -0.0293,-1.037109 0.0189,-0.02646 0.02526,-0.579861 0.02148,-1.230469 -0.02646,-2.202369 -0.02141,-2.665857 0.03906,-3.294922 0.03024,-0.345449 0.02967,-0.769438 -0.002,-0.941406 -0.03024,-0.171969 -0.02782,-0.291704 -0.0059,-0.265625 0.02646,0.02646 0.05381,-0.136529 0.0625,-0.363281 0.01134,-0.22715 0.09345,-0.785369 0.189453,-1.240235 0.09638,-0.454866 0.155049,-0.847245 0.13086,-0.871094 -0.02646,-0.02646 0.01526,-0.205317 0.08594,-0.402343 0.07181,-0.196914 0.198478,-0.611312 0.28125,-0.921875 0.08315,-0.310678 0.253426,-0.814624 0.378906,-1.119141 0.125481,-0.304252 0.285548,-0.710835 0.355469,-0.902344 0.182173,-0.500107 1.975825,-2.915252 2.607422,-3.511718 0.277795,-0.261922 0.726009,-0.625451 0.996094,-0.806641 0.269858,-0.181039 0.549951,-0.415809 0.623047,-0.521485 0.07332,-0.105429 0.155184,-0.171807 0.18164,-0.146484 0.02646,0.02646 0.205007,-0.04879 0.394531,-0.164062 0.577512,-0.35263 1.178273,-0.544983 2.292969,-0.734375 1.164208,-0.19767 1.69932,-0.228878 2.498047,-0.146485 0.394243,0.04044 0.746882,0.06609 0.783203,0.05664 0.07446,-0.02268 0.425125,0.05486 1.351563,0.292969 0.35074,0.09033 0.6679,0.145346 0.703125,0.123046 0.03401,-0.02645 0.113733,0.0071 0.173828,0.06641 0.199559,0.195023 0.579668,0.251422 0.742187,0.107422 0.115654,-0.102048 0.165011,-0.30313 0.181641,-0.728516 0.0378,-0.95195 0.148586,-2.09689 0.269531,-2.742187 0.06236,-0.331087 0.100705,-0.635757 0.08398,-0.675782 -0.0189,-0.04006 -0.0024,-0.112975 0.0332,-0.162109 0.03401,-0.04951 0.08771,-0.224754 0.117187,-0.388672 0.168189,-0.92126 0.934584,-2.991319 1.306641,-3.529297 0.105071,-0.150047 0.174833,-0.322125 0.158203,-0.380859 -0.0189,-0.05858 0.04891,-0.18733 0.144531,-0.28711 0.096,-0.0994 0.541907,-0.645066 0.990235,-1.210937 0.448289,-0.565833 0.91372,-1.086581 1.035156,-1.158203 l 0.197265,-0.117188 c -0.08039,-0.06057 -0.125467,-0.159641 -0.0039,-0.11914 l -0.0059,0.01953 c 0.01134,0.0036 0.128596,-0.199658 0.154297,-0.189453 0.0022,8.89e-4 0.0037,0.003 0.0059,0.0039 0.0093,-0.01025 0.03297,-0.03584 0.03516,-0.03711 -0.0054,0.0054 0.0078,-0.007 0.01563,-0.01367 0.0072,-0.007 -0.0053,0.005 0.0059,-0.0059 0.0083,-0.0075 0.01611,-0.01604 0.02539,-0.02148 0.0097,-0.0048 0.01957,-0.0039 0.0293,-0.0059 0.0065,-0.0025 0.02818,-0.01015 0.05273,-0.02148 0.0084,-0.0034 0.01564,-0.0076 0.02734,-0.01172 l 0.002,-0.002 c 0.009,-0.0084 0.02688,-0.02251 0.02344,-0.01563 -0.0031,0.0061 -0.0067,0.0045 -0.01367,0.01172 l -0.002,0.002 c -0.0089,0.0087 -0.02039,0.02425 -0.01758,0.01563 0.003,-0.0095 0.01725,-0.01 0.02344,-0.01758 l 0.002,-0.002 c 0.02538,-0.02942 0.06131,-0.05463 0.0918,-0.07031 0.0076,-0.0031 -0.01197,0.004 -0.01953,0.0078 0.01788,-0.01533 0.03744,-0.02345 0.05664,-0.0332 0.0092,-0.0047 0.01656,-0.0106 0.02734,-0.01563 0.0053,-0.0027 -0.01026,0.0041 -0.01953,0.0078 l -0.002,0.002 c -0.002,5.23e-4 -0.0066,0.0035 -0.0059,0.002 0.0029,-0.0044 0.0064,-0.0041 0.01172,-0.0098 0.01576,-0.01906 0.03727,-0.0352 0.0625,-0.04687 0.0239,-0.02229 0.06646,-0.05675 0.07422,-0.0625 0.0191,-0.0027 0.03964,-0.0079 0.06055,-0.01172 0.01154,-0.01165 0.01022,-0.01548 0.02344,-0.02734 0.01366,-0.0082 0.02611,-0.01633 0.03906,-0.02344 0.0031,-0.0031 0.0076,-0.0022 0.01367,-0.0078 v 0.002 c -0.0084,0.0071 -0.02034,0.02102 -0.01758,0.01367 0.01512,-0.04762 0.07738,-0.05589 0.113281,-0.06836 -0.02599,0.01155 -0.01716,0.0051 -0.02148,0.0059 0.02525,-0.0267 0.07597,-0.05879 0.08789,-0.06445 -0.0076,0.0026 -0.02709,0.01169 -0.01953,0.0078 0.0189,-0.01134 0.04209,-0.01991 0.0625,-0.03125 0.0038,-0.0022 -0.0155,0.0084 -0.01172,0.0039 0.01531,-0.01225 0.04372,-0.0274 0.06445,-0.03711 3.43e-4,-9.56e-4 0.0026,-0.0022 0.0039,-0.0039 0.0031,-10e-4 -0.0045,0.0074 0.01172,-0.0039 0.01764,-0.019 0.03776,-0.03565 0.06055,-0.04687 -0.0053,-0.0037 0.0027,-0.02043 0.04102,-0.04687 0.0059,-0.0039 0.01315,-0.0042 0.01953,-0.0078 0.01942,-0.02812 0.02294,-0.04618 0.04687,-0.06055 0.02646,-0.01512 0.05917,-0.01405 0.08789,-0.02539 0.004,-0.0013 -0.0051,-0.0015 -0.01172,0 -0.01219,0.0028 -0.02712,0.0069 -0.02148,0.002 0.0079,-0.004 0.01649,-0.0054 0.02539,-0.0078 2.57e-4,-0.0014 0.0048,-0.004 0.0059,-0.0059 l 0.002,-0.002 c 0.0045,-0.007 0.0026,-0.01157 0.01953,-0.02148 0.03024,-0.0189 0.135179,-0.04492 0.04297,-0.02148 0.0053,-0.0018 0.01974,-0.01 0.03516,-0.01953 l 0.002,-0.002 c 0.01279,-0.02955 0.06093,-0.06003 0.08789,-0.07813 0.01155,-0.0046 0.02191,-0.0091 0.0332,-0.01367 0.0026,-0.0076 0.01393,-0.01185 0.02148,-0.01563 0.0053,-0.0021 0.01117,-6.47e-4 0.01758,-0.0039 0.02938,-0.03757 0.05903,-0.03413 0.115235,-0.05859 0.01134,-0.0038 -0.02187,0.01157 -0.0332,0.0039 -0.0076,-0.0033 0.0099,-0.0081 0.01367,-0.01563 l 0.01563,-0.01563 c 0.01209,-0.0091 0.02619,-0.0163 0.03906,-0.02344 0.02869,-0.02339 0.04562,-0.03412 0.09375,-0.03906 0.01512,-0.0018 -0.05752,0.02684 -0.04883,0.01172 0.01134,-0.0189 0.03655,-0.01393 0.05469,-0.02148 0.01002,-0.006 0.02005,-0.0078 0.0293,-0.01172 l 0.002,-0.002 c -0.0017,-0.0035 0.009,-0.01033 0.01563,-0.01367 0.0071,-0.0035 0.01575,-0.0049 0.02344,-0.0078 0.0051,-0.0023 0.0072,-0.0025 0.01563,-0.0059 0.02194,-0.01515 0.02798,-0.02189 0.07227,-0.03125 0.01512,-0.0025 -0.02659,0.0155 -0.03906,0.01172 -0.01134,-0.0029 0.016,-0.01185 0.02734,-0.01563 0.0189,-0.0076 0.03774,-0.01575 0.05664,-0.01953 0.01512,-0.003 -0.02741,0.01185 -0.04102,0.01563 0.102425,-0.04951 0.01961,-0.01601 0.115234,-0.03906 0.0018,-4.15e-4 0.0022,-0.0037 0.0039,-0.0039 0.0076,-0.0037 0.01783,-0.0059 0.02539,-0.0059 0.0081,-0.0024 0.02095,-0.0053 0.0293,-0.0059 0.0062,-0.0015 0.0012,-0.0013 0.04102,-0.02148 0.01134,-0.0076 -0.02741,0.02123 -0.04102,0.01367 -0.01134,-0.0076 0.01808,-0.01393 0.0332,-0.02148 0.01913,-0.0088 0.02989,-0.0052 0.04102,-0.0078 0.01043,-0.0093 0.01668,-0.01867 0.02734,-0.02539 0.0189,-0.01134 0.04052,-0.01991 0.06055,-0.03125 0.0028,-0.0015 -0.01169,0.0037 -0.0078,0.002 0.0076,-0.0076 0.01991,-0.01188 0.03125,-0.01562 0.01381,-0.0055 0.02832,-0.0059 0.04297,-0.0078 -0.01411,0.007 -0.0058,-0.002 0.0039,-0.002 0.003,-0.0014 0.0066,-0.0025 0.0098,-0.0039 -0.0076,-0.01134 0.01991,-0.01588 0.03125,-0.02344 -0.02109,0.02109 0.05138,-0.01625 0.08398,-0.01758 0.01574,-0.0073 0.03265,-0.0102 0.0625,-0.01367 l 0.002,-0.002 c 0.0189,-0.0076 0.03315,-0.01783 0.05469,-0.02539 0.0073,-0.0018 0.01584,9.53e-4 0.02539,-0.002 0.01112,-0.0037 0.02027,-0.0092 0.0293,-0.01367 -0.01221,0.01465 0.02836,0.0011 0.06055,-0.0078 0.0094,-0.0041 0.01678,-0.0094 0.02539,-0.01172 0.01512,-0.0038 0.03333,-0.006 0.04883,-0.0098 0.01512,-0.002 0.03018,-0.0014 0.04492,-0.002 0.0069,5.56e-4 0.0132,0.0017 0.02148,0.002 0.0059,-0.0024 0.01574,-0.0045 0.02148,-0.0059 0.0051,-0.0094 0.02039,-0.02215 0.03125,-0.0293 0.05896,-0.04082 0.05773,-0.02697 0.125,-0.03906 l -0.002,-0.002 c 0.0076,-0.0027 0.01575,-0.0038 0.01953,-0.0039 0.02835,-0.0057 0.03642,-0.0055 0.05273,-0.0059 0.0143,-0.0075 0.02867,-0.01486 0.04297,-0.02344 0.05098,-0.0061 0.0519,-0.0061 0.07617,-0.0039 0.0062,-0.0035 0.01628,-0.0091 0.01758,-0.0098 0.0035,-0.0018 0.0079,-0.0025 0.01172,-0.0039 -3.1982,-3.429847 -6.82831,-6.277951 -10.332031,-7.917968 -2.610595,-1.221959 -4.764432,-2.729679 -4.787109,-3.351563 -0.02256,-0.621883 1.534928,-5.483906 3.460937,-10.804687 z m 5.986328,32.74414 c 0.01081,-0.0053 0.01594,-0.01561 0.0293,-0.02148 -0.0548,0.03024 0.0078,-0.0155 0.0078,-0.01172 -0.01323,0.02627 -0.03177,0.03694 -0.03711,0.0332 z m -0.06055,0.04687 c -0.0034,0.0013 -0.01076,0.0055 -0.01563,0.0078 -0.0054,0.0033 -0.01208,0.01521 -0.0098,0.01172 0.0075,-0.01103 0.01801,-0.01158 0.02539,-0.01953 z M 48.785156,16.705078 c 0.01032,-0.0037 0.0275,-0.001 0.05078,0.0098 0.2235,0.09867 1.041654,0.83745 2.404296,2.123047 2.331855,2.199987 5.151685,5.26443 6.265625,6.808593 4.076342,5.650734 1.14324,3.329202 -4.599609,-3.640625 -2.965637,-3.599224 -4.275897,-5.244654 -4.121094,-5.300781 z m 39.011719,5.082031 c -6.387472,0.13641 -12.335199,2.591415 -16.408203,6.955079 -2.580359,2.764516 -2.217523,3.277338 1.074219,1.515624 1.110954,-0.59639 2.248414,-0.853147 2.527343,-0.574218 0.279005,0.279004 -0.884847,1.227737 -2.585937,2.107422 -4.110765,2.125757 -3.901192,3.341082 0.658203,3.830078 9.054387,0.971036 18.838929,-1.780335 23.730469,-6.671875 3.891291,-3.891326 3.262301,-5.315074 -2.916016,-6.597657 -1.605224,-0.333229 -3.211721,-0.517584 -4.796875,-0.560546 -0.429312,-0.01164 -0.857372,-0.01318 -1.283203,-0.0039 z m -8.294922,25.033203 c -0.003,0.0023 -0.0056,0.0052 -0.0078,0.0059 0.0068,-0.0018 0.01345,-0.0043 0.01953,-0.0059 -0.01587,0.0068 -0.01107,0.0013 -0.01172,0 z m 1.417969,0.0957 c -0.0083,0.0044 -0.01423,0.01169 -0.0293,0.01953 0.0094,-0.0039 0.0179,-0.01052 0.02734,-0.01367 0.0014,-5.14e-4 0.0025,-0.0014 0.0039,-0.002 -7.78e-4,-0.0011 -0.0012,-0.0028 -0.002,-0.0039 z m -1.738281,0.492187 c -0.0019,4.56e-4 -0.0045,0.0037 -0.0059,0.0039 0.0018,-6.07e-4 0.004,-0.0014 0.0059,-0.002 z m 4.533203,1.185547 c -0.02461,0.01766 -0.03284,0.03073 -0.05273,0.02344 -0.0189,0.0076 -0.039,0.01966 -0.06055,0.02344 -0.0084,8.91e-4 0.0089,-0.0067 0.02148,-0.01172 -0.06463,0.03402 -0.04184,0.04404 -0.06641,0.0293 -0.02268,0.0076 -0.04215,0.01978 -0.06445,0.02734 -0.0076,0.0027 0.01393,-0.01185 0.02148,-0.01563 0.0038,-0.002 -0.0061,0.0078 -0.01367,0.0078 -0.096,0.0378 -0.08152,0.03072 -0.05469,0.01563 -0.01512,-0.0076 0.01801,0.0079 -0.02734,0.01172 -0.0038,3.4e-4 0.0082,-0.01563 0.0039,-0.01563 -0.02842,0.02132 -0.0553,0.04737 -0.08203,0.07227 -0.01735,0.0089 -0.03548,0.01645 -0.05273,0.02539 0.0076,-0.0034 0.02331,-0.0155 0.01953,-0.01172 -0.01863,0.0093 -0.03693,0.01817 -0.05469,0.02539 -0.0094,0.0073 -0.01811,0.01472 -0.02734,0.02148 0.001,-0.0017 0.0026,-0.0077 0.002,-0.0039 -0.0076,0.0038 -0.01405,0.01197 -0.02539,0.01953 -9.83e-4,6.42e-4 0.0029,-0.0045 0.002,-0.0039 -0.01512,0.01134 -0.03106,0.02382 -0.04883,0.03516 -0.002,0.0012 0.0029,-0.004 0.0039,-0.0078 -0.0038,0.0028 -0.01172,0.0117 -0.01172,0.0078 5.67e-4,-0.0076 0.01928,-0.02722 0.01172,-0.02344 -0.05679,0.05525 -0.0569,0.0669 -0.09961,0.08008 -0.0023,0.0024 -0.0075,0.01097 -0.01563,0.01367 -0.0023,0.0018 -8.52e-4,-0.0045 0.002,-0.0098 0.0014,-0.0032 0.0048,-0.0073 0.002,-0.0059 -0.0039,0.0029 -0.0079,0.0067 -0.01172,0.0098 -0.02375,0.01916 -0.04676,0.04151 -0.07031,0.0625 -0.01777,0.01084 -0.03271,0.02207 -0.05078,0.0293 0.0038,-0.0038 0.01928,-0.0155 0.01172,-0.01172 -0.01475,0.0049 -0.02867,0.01238 -0.04297,0.01953 -0.01189,0.0093 -0.02412,0.01819 -0.03516,0.02734 -0.01512,-0.0038 -0.0016,-4.52e-4 -0.03906,0.01953 -0.0013,8.32e-4 0.0047,-0.004 0.0039,-0.0039 -0.0189,0.01134 -0.03743,0.02552 -0.05859,0.0293 -0.0069,0.0062 -0.01714,0.02129 -0.03516,0.02734 -0.0116,0.0058 -0.02712,0.01271 -0.03906,0.01172 -0.01374,0.0118 0.0056,-0.0016 -0.03125,0.02734 -0.0076,0.0024 -0.01002,0.004 -0.01758,0.0078 -0.03841,0.01179 -0.04743,0.01406 -0.04883,0.01367 -0.01434,0.01117 -0.01867,0.0031 -0.01758,0.01563 -0.0189,0.01134 -0.03862,0.02747 -0.06055,0.03125 -0.01512,0.002 0.03163,-0.016 0.04297,-0.02734 0.0076,-0.0076 0.02123,-0.0349 0.01367,-0.02734 -0.111874,0.102425 -0.01363,0.04802 -0.105469,0.09375 0.0038,-0.0076 0.01699,-0.031 0.0098,-0.02344 -0.316347,0.216189 0.08376,-0.03324 -0.109375,0.09375 0.0076,-0.01512 0.0017,-0.0042 -0.02344,0.01367 -0.01441,0.0108 -0.02764,0.02045 -0.04492,0.03125 -0.0023,0.0014 0.0077,-0.0078 0.0039,-0.0078 -0.0038,0.0013 -0.0079,0.0078 -0.01172,0.0078 0.0033,-0.0038 0.0155,-0.0194 0.01172,-0.01563 -0.02834,0.02642 -0.05369,0.03853 -0.07813,0.05469 0.0186,-0.01152 0.0392,-0.02414 0.01563,-0.03125 -0.01174,0.0229 -0.03834,0.03806 -0.05469,0.05859 -0.0028,4.37e-4 -0.0028,0.0036 -0.0059,0.0039 -0.0019,1.98e-4 0.0064,-0.0018 0.0059,-0.002 -0.01513,0.01865 -0.02004,0.04255 -0.05078,0.05273 -0.0189,0.0076 -0.03428,0.01563 -0.05469,0.01563 -0.0041,0.0034 -0.0131,0.0098 -0.01563,0.01172 -0.002,0.0033 -0.0023,0.0035 -0.0039,0.0059 0.0014,-0.03425 -0.0069,-0.0013 -0.03516,0.0625 -0.01681,0.01416 -0.03435,0.03072 -0.04883,0.04687 -0.0013,1.51e-4 -0.0029,-6.42e-4 -0.0039,0 -0.01512,0.0076 -0.03012,0.016 -0.04297,0.02734 -0.0029,0.0033 -0.0068,0.0066 -0.0098,0.0098 0.0038,-0.0076 0.01941,-0.02331 0.01563,-0.01953 -0.01512,0.01134 -0.02546,0.03125 -0.03906,0.04297 -0.01134,0.01134 0.11084,-0.130223 -0.01953,0.01758 0.01134,-0.0189 0.03963,-0.07119 0.0332,-0.05078 -0.01847,0.06426 -0.0865,0.104928 -0.152344,0.148437 l -0.002,0.002 c -0.0028,0.0034 -0.0018,0.0031 -0.0039,0.0059 -0.01192,0.01317 0.05821,-0.05606 -0.04883,0.05273 0.02492,-0.03035 -9.45e-4,-0.0028 -0.01563,0.01367 -0.0066,0.0097 -0.01152,0.02037 -0.02148,0.02734 -0.0019,0.0011 0.08643,-0.127578 -0.01563,0.01758 0.04384,-0.06009 -0.06861,0.07611 -0.08789,0.0625 -0.0033,0.0039 -0.0063,0.0077 -0.0098,0.01172 0.02129,-0.02738 -0.002,-0.002 -0.03125,0.02539 -0.03024,0.01512 0.0018,-3.17e-4 -0.05078,0.07813 l -0.002,-0.002 c -0.0446,0.03931 -0.03989,0.0494 -0.09961,0.06641 -0.0067,0.0045 -0.0073,2.16e-4 0,-0.0078 -0.0353,0.04914 -0.04287,0.05949 -0.08594,0.08398 -0.005,0.0028 -0.0032,0.0059 -0.0098,0.0098 -0.01177,0.01261 -0.02314,0.02409 -0.03516,0.03516 -0.0045,0.0045 -0.0094,0.0088 -0.01367,0.01367 -0.0018,0.0021 -0.0041,0.0036 -0.0059,0.0059 0.0025,-0.0039 0.0063,-0.01035 0.0039,-0.0078 -0.06954,0.07559 -0.01841,0.03775 -0.101563,0.0918 0.0047,-0.01805 -0.0069,-0.0099 -0.0098,-0.01172 -0.0091,0.01315 -0.01762,0.02602 -0.02734,0.03906 -0.0189,0.02646 -0.04247,0.05324 -0.0625,0.08008 -0.04197,0.05556 -0.09343,0.04912 -0.142578,0.02734 -0.0034,0.0055 -0.0052,0.01664 -0.04102,0.03906 -0.0018,0.0011 0.0029,-0.0078 0.002,-0.0078 -0.0038,0.0026 -0.0099,0.0079 -0.01367,0.01172 0.0034,-0.0038 0.0133,-0.0194 0.0098,-0.01563 -0.01076,0.01075 -0.02222,0.02079 -0.0332,0.03125 0.168333,0.227544 0.321244,0.45942 0.52539,0.802735 1.823585,3.066822 5.080795,8.397478 5.207032,8.521484 0.171995,0.169756 1.200148,-1.325602 1.498046,-2.173828 -0.02869,-0.04212 -0.02826,-0.101931 0.05078,-0.154297 l 0.01172,0.01563 c 0.042,-0.02821 0.07112,-0.06858 0.103516,-0.105469 0.0023,0.0032 0.0071,0.0049 0.0098,0.0078 0.0013,-0.0068 -0.0014,-0.01269 0,-0.01953 v -0.002 c 0.0032,-0.01575 0.0013,-0.02983 0.002,-0.04492 5.3e-5,-0.0013 -1.7e-5,-0.0026 0,-0.0039 -0.0034,0.0068 0.0014,-0.0025 0.0059,-0.0098 0.0138,-0.0481 0.06464,-0.09231 0.08789,-0.115235 0.0015,-9.93e-4 0.0053,-0.0023 0.0078,-0.0039 0.0028,-0.007 0.0021,-0.01324 0.0039,-0.01758 0.009,-0.0108 0.01931,-0.01975 0.0293,-0.0293 9.49e-4,-0.0012 0.0022,-0.0032 0.0039,-0.0059 0.0054,-0.0087 0.0074,-0.013 0.01172,-0.01953 0.0019,-0.0019 0.0041,-0.002 0.0078,-0.0039 0.01482,-0.02088 0.02686,-0.0425 0.04883,-0.0625 -0.0039,0.0011 -0.01568,0.0039 -0.01563,0.0039 0.01134,-0.04422 0.01223,-0.04594 0.02734,-0.07617 0.01271,-0.01833 0.02766,-0.03726 0.03906,-0.05664 0.0024,-0.0015 0.0035,-0.0043 0.0059,-0.0059 0.02048,-0.04478 0.07203,-0.137553 0.03516,-0.07617 0.0092,-0.01848 0.0181,-0.03405 0.02734,-0.05078 -0.0025,0.005 -0.0046,0.0018 -0.0078,0.0078 -0.0038,0.0076 0.0079,-0.01197 0.01172,-0.01953 h 0.002 c -0.0021,0.0039 -0.0038,0.0079 -0.0059,0.01172 0.01776,-0.03496 0.04439,-0.0459 0.05469,-0.05469 v -0.002 c 0.0038,-0.0378 0.01783,-0.07114 0.02539,-0.107422 0.03347,-0.04673 0.03615,-0.04778 0.02539,-0.03125 0.0011,-0.0022 0.0028,-0.0037 0.0039,-0.0059 0.0068,-0.01376 0.01216,-0.02766 0.01758,-0.04102 -0.0019,0.0021 -0.004,0.0037 -0.0059,0.0059 -0.0038,0.0038 0.01,-0.02696 0.0098,-0.01563 -0.0011,0.0032 -0.0026,0.0066 -0.0039,0.0098 0.02463,-0.0278 0.04852,-0.05481 0.07031,-0.08398 0.0026,-0.0035 -0.0155,0.0086 -0.01172,0.0039 0.0038,-0.04346 0.02306,-0.01223 0.01172,-0.02734 0.07635,-0.139087 0.01172,-0.01185 0.01172,-0.01563 0.0013,-0.02466 0.01637,-0.03492 0.02539,-0.05078 -0.02702,-0.05749 -0.04871,-0.116432 -0.07617,-0.173828 -1.273476,-2.661633 -2.97892,-5.298644 -4.935547,-7.744141 -0.0027,2.29e-4 -0.0051,0.002 -0.0078,0.002 -0.0076,0.0011 -0.02539,0.0073 -0.02539,-0.002 z m 4.919922,8.132812 c -0.0012,0.0023 -0.02728,0.04258 0.01563,-0.01953 0.0019,-0.0027 -0.0078,0.0019 -0.0078,0.0059 -0.0019,0.0038 -0.004,0.0071 -0.0078,0.01367 z m -0.277344,0.525391 c -0.0057,0.008 -0.01571,0.01327 -0.01953,0.02344 0.0093,-0.0089 0.01895,-0.0176 0.02734,-0.02734 0.0017,-0.0019 -0.0041,0.002 -0.0078,0.0039 z m -7.257813,-6.84375 h 0.002 c 0.0076,0.0027 0.01322,-0.02331 0.0098,-0.01953 -0.0045,0.0057 -0.0077,0.01176 -0.01172,0.01758 z m -1.214843,-1.761719 c -9.9e-5,0.0012 -0.0037,0.0089 -0.0039,0.0098 0.002,-0.0016 0.0039,-0.0043 0.0059,-0.0059 -0.0015,-0.0013 -1.19e-4,-0.0026 -0.002,-0.0039 z m 1.611328,0.126954 c -0.0019,-0.0012 -0.0144,0.0054 -0.02344,0.0059 -0.0051,0.0027 -0.0087,0.006 -0.01563,0.0098 0.0034,0.0011 0.0059,0.0018 0.0059,0.0039 -9.71e-4,-0.0028 0.0011,-0.0028 0,-0.0059 0.0042,10e-4 0.01548,-0.0035 0.02539,-0.0059 h 0.002 l 0.002,-0.002 0.002,-0.002 h 0.002 c 0.0013,-0.0013 1.04e-4,-0.0029 0,-0.0039 z m -0.0332,0.01953 c -0.0012,0.0036 -0.01207,0.009 -0.02148,0.01563 0.0066,-0.0039 0.01263,-0.0083 0.01953,-0.01172 0.0026,-0.0012 -0.0035,0.01167 -0.002,0.0078 0.0021,-7.07e-4 0.004,-0.0026 0.0059,-0.0039 -0.0011,-0.0035 -2.28e-4,-0.0039 -0.002,-0.0078 z m 1.25,0.125 c -0.01101,0.0045 -0.01842,0.01029 -0.0332,0.01563 -0.0051,0.0013 0.0091,-0.002 0.01367,-0.0039 0.0046,-0.0033 0.0044,-0.0025 0.01953,-0.01172 z m -0.144532,0.0059 c -0.0072,0.0074 -0.01422,0.01696 -0.02148,0.02539 0.0063,-0.0041 0.0078,-0.006 0.01172,-0.0078 0.0033,-0.0067 0.01,-0.01922 0.0098,-0.01758 z m 0.328125,0.09766 c -0.003,0.0023 -0.0065,0.0053 -0.0098,0.0078 0.004,-0.0021 0.0053,-0.0022 0.0078,-0.0039 0.0016,-9.83e-4 0.0026,-0.0077 0.002,-0.0039 z m -1.201172,0.345704 c -0.0032,0.0017 -0.0053,0.0027 -0.01172,0.0059 l -0.002,0.002 c -0.0034,0.0017 -0.003,0.0023 -0.0059,0.0039 l -0.002,0.002 -0.002,0.002 v 0.002 c 0.01143,-0.01099 0.01636,-0.0096 0.02344,-0.01758 z m -0.626953,0.173828 c -0.0013,0.0013 -0.0027,0.0026 -0.0039,0.0039 -8.9e-5,2.05e-4 -0.0073,0.02202 -0.0039,0.01563 0.0028,-0.0076 0.01167,-0.02331 0.0078,-0.01953 z m 0.06836,0 c -0.0032,5.07e-4 -0.0032,0.0018 -0.0059,0.002 h -0.002 l -0.002,0.002 -0.002,0.002 v 0.002 c 0.0014,-3.27e-4 0.0025,-0.0016 0.0039,-0.002 0.0028,-0.0016 0.005,-0.0042 0.0078,-0.0059 z m -1.558594,2.177734 c -0.171213,0.06803 -1.000756,1.283702 -1.265625,1.855469 -0.122079,0.263433 -0.21333,0.593158 -0.203125,0.730469 0.01512,0.159855 0.482546,1.002646 1.304687,2.339843 1.190476,1.936139 1.993914,3.273167 2.791016,4.638672 0.474558,0.812825 0.555061,0.852748 1.328125,0.65625 0.68863,-0.174992 1.826321,-0.737177 1.814453,-0.896484 -0.0024,-0.048 -0.670995,-1.174999 -1.482422,-2.501953 -0.811426,-1.326955 -1.989887,-3.273687 -2.61914,-4.326172 -1.552139,-2.595969 -1.523138,-2.55377 -1.667969,-2.496094 z m -2.070313,4.724609 c -0.109587,0.156095 -0.269214,2.626489 -0.259765,4.001953 0.0015,0.263056 0.0028,0.482726 0.002,0.488282 -0.0015,0.0035 0.342749,0.137341 0.761719,0.292968 h 0.002 c 0.713475,0.264049 1.7145,0.562761 2.574219,0.767579 l 0.367187,0.08789 -0.144531,-0.255859 c -0.08003,-0.141057 -0.797908,-1.332545 -1.597656,-2.650391 -0.799711,-1.317921 -1.503735,-2.481773 -1.564453,-2.585937 -0.06085,-0.104315 -0.124751,-0.169918 -0.140626,-0.146485 z m 10.996094,0.582032 c 0.0076,-0.0076 -0.01978,0.0081 -0.02734,0.01563 l -0.0059,0.0098 c 0.01175,-0.0085 0.02334,-0.01721 0.0332,-0.02539 z m -0.27539,0.410156 c 0.0033,0.0067 0.01305,0.008 0.01758,0.01367 0.0017,-0.003 0.0039,-0.0088 0.0059,-0.01172 -0.0054,0.003 -0.02684,-0.0092 -0.02344,-0.002 z m -0.0039,0.326172 c -0.0039,0.0012 -0.0078,0.003 -0.01172,0.0059 0.0011,7.32e-4 0.0067,0.0071 0.0078,0.0078 0.0025,-0.0034 0.001,-0.01036 0.0039,-0.01367 z m 0.476563,0.320312 c -0.0024,0.0021 -0.0052,0.0068 -0.0078,0.0078 -0.0052,0.0087 5.35e-4,0.02154 -0.0059,0.01953 -0.0026,-7.14e-4 0.01087,-0.01726 0.01367,-0.02734 z m -0.08398,0.05273 c -0.0044,0.0072 -4.79e-4,-6.65e-4 -0.0039,0.0059 l 0.002,0.002 c 0.0012,-0.0025 4.02e-4,-0.0051 0.002,-0.0078 z m 0.02539,0.0098 c -0.004,0.0036 -0.0091,0.0064 -0.01367,0.0098 0.0012,0.0011 0.0027,0.0048 0.0039,0.0059 0.0033,-0.0059 0.0084,-0.01317 0.0098,-0.01563 z m 1.875,2.660157 c -4.44e-4,-7.14e-4 -0.0039,0.0034 -0.0039,0.002 -0.0098,0.01148 -0.04178,0.05076 -0.0293,0.0332 h -0.002 c 0.0017,0.0053 0.0041,0.01036 0.0059,0.01563 z m -0.0293,0.05078 -0.126953,0.214843 c -0.551357,0.929046 -1.403646,2.014854 -1.828125,2.332032 -0.164787,0.122834 -0.438061,0.380089 -0.607422,0.570312 -0.450973,0.506268 -0.490241,0.54338 -0.591797,0.585938 -0.426519,0.179149 -0.778075,0.37798 -0.847656,0.478515 -0.100913,0.143622 -1.053201,0.57059 -1.123047,0.501953 -0.02646,-0.02645 -0.07605,-0.01202 -0.107422,0.03711 -0.120567,0.174614 -1.090262,0.453616 -2.037109,0.585937 -0.870123,0.121701 -1.477142,0.131408 -2.011719,0.03125 -0.09033,-0.01512 -0.620065,-0.08545 -1.177734,-0.152343 -0.557669,-0.06614 -1.043013,-0.148445 -1.078125,-0.183594 -0.03402,-0.0378 -0.406644,-0.1627 -0.826172,-0.285156 l -0.763672,-0.222657 -0.02148,0.328125 c -0.01512,0.180284 -0.0071,0.453784 0.01563,0.607422 0.02268,0.153449 0.0023,0.320448 -0.03125,0.371094 -0.03402,0.05065 -0.04706,0.218464 -0.0293,0.373047 0.02268,0.154583 -0.0083,0.440637 -0.05664,0.636719 -0.04989,0.196157 -0.09791,0.531945 -0.105469,0.746093 -0.02645,0.716259 -0.278372,2.052217 -0.523437,2.78125 -0.133417,0.396813 -0.242629,0.78468 -0.244141,0.861329 -0.0015,0.07672 -0.05892,0.259226 -0.126953,0.40625 -0.06841,0.146626 -0.203206,0.451491 -0.298828,0.677734 -0.230929,0.541379 -1.284696,2.068246 -2.119141,3.070312 -0.574318,0.690029 -0.798569,0.889054 -1.630859,1.44336 -2.292888,1.527193 -3.771286,1.963879 -5.855469,1.726562 -0.278551,-0.03401 -0.607369,-0.05248 -0.730468,-0.04492 -0.199181,0.01134 -1.654906,-0.360633 -2.806641,-0.716796 L 62.375,78.488281 l -0.06055,0.328125 c -0.03402,0.18104 -0.03943,0.350497 -0.01563,0.376953 0.02646,0.03024 0.02608,0.288778 -0.01172,0.582032 -0.03402,0.293669 -0.02948,0.618757 0.0039,0.722656 0.03402,0.103937 0.03856,0.226571 0.0039,0.273437 -0.03402,0.04762 -0.08544,0.368122 -0.117188,0.712891 -0.03402,0.344693 -0.09647,0.682913 -0.142578,0.75 -0.04649,0.06728 -0.06205,0.143843 -0.03711,0.169922 0.02646,0.02646 0.0062,0.19575 -0.04297,0.378906 -0.04951,0.183685 -0.09841,0.411775 -0.109375,0.507813 -0.01134,0.096 -0.05041,0.291823 -0.08594,0.433593 -0.03402,0.142111 -0.09905,0.400096 -0.140625,0.574219 -0.09638,0.400554 -0.303595,0.93555 -0.78711,2.015625 -0.587792,1.312819 -1.019556,1.994438 -1.751953,2.767578 -0.354142,0.373796 -0.739652,0.820042 -0.857422,0.990235 -0.124724,0.180661 -0.2822,0.309432 -0.376953,0.310546 -0.08946,9.83e-4 -0.196782,0.05004 -0.238281,0.109376 -0.09158,0.131508 -1.279368,0.902052 -1.38086,0.894531 -0.03999,-0.0026 -0.158688,0.06831 -0.261718,0.160156 -0.103068,0.09109 -0.254477,0.166835 -0.337891,0.167969 -0.08357,0.0011 -0.175787,0.03768 -0.205078,0.07813 -0.0291,0.04233 -0.345303,0.1845 -0.701172,0.316406 -0.719758,0.266835 -2.569318,0.486164 -3.507812,0.416016 -0.995498,-0.07408 -1.659564,-0.174853 -1.75,-0.263672 -0.0466,-0.04611 -0.153066,-0.07749 -0.236329,-0.07031 -0.08326,0.0076 -0.36962,-0.05483 -0.634765,-0.140625 -0.265058,-0.0858 -0.559778,-0.155053 -0.65625,-0.154297 -0.09642,8.32e-4 -0.204077,-0.04285 -0.238281,-0.09766 -0.03439,-0.05442 -0.13564,-0.0727 -0.22461,-0.03906 -0.130582,0.04913 -0.167792,0.172392 -0.199218,0.644531 -0.02117,0.321638 -0.03534,0.620459 -0.0293,0.662109 0.01776,0.123591 -0.14064,1.803848 -0.216797,2.294922 -0.0387,0.249071 -0.06647,0.553148 -0.0625,0.673828 0.0038,0.120567 -0.03286,0.27662 -0.08203,0.347656 -0.04925,0.07106 -0.06058,0.157391 -0.02539,0.191407 0.03515,0.0378 0.0286,0.114616 -0.01563,0.177734 -0.04369,0.06312 -0.229845,0.577577 -0.414063,1.142578 -0.184252,0.564964 -0.404459,1.126838 -0.488281,1.248047 -0.08425,0.120567 -0.145626,0.294978 -0.138672,0.388672 0.0091,0.117921 -0.2728,0.58965 -0.923828,1.55078 -0.774709,1.14384 -1.034434,1.47191 -1.515625,1.91211 -0.319937,0.29216 -0.654864,0.57594 -0.74414,0.63086 -0.27292,0.16781 -0.83915,0.58461 -1.019532,0.75 -0.09377,0.0862 -0.36255,0.23572 -0.597656,0.33398 -0.235049,0.0979 -0.453372,0.21479 -0.484375,0.25977 -0.03099,0.0446 -0.08691,0.0726 -0.123047,0.0606 -0.03628,-0.0113 -0.300929,0.0677 -0.589844,0.17773 -0.615798,0.23395 -2.529274,0.63369 -2.537109,0.5293 -0.0029,-0.0389 -0.09357,-0.0411 -0.201172,0.008 -0.0267,0.0109 -0.05377,0.0174 -0.08594,0.0137 -0.01654,0.0178 -0.03476,0.0348 -0.06445,0.0469 -0.03725,0.0157 -0.07088,0.0381 -0.105468,0.0586 -0.0042,0.0186 -0.01564,0.03 -0.03516,0.0566 -0.07499,0.0547 -0.04402,0.0361 -0.113282,0.0527 -0.0048,10e-4 -0.0018,0.002 -0.0078,0.004 0.0041,7e-5 0.05945,-0.0117 0.0098,0.004 -0.0057,0.001 -0.0093,-4.4e-4 -0.01758,0.004 -0.0026,0.002 -0.0048,0.004 -0.0078,0.006 -0.01928,0.0113 -0.03965,0.0197 -0.06055,0.0234 -0.0032,6.8e-4 -0.006,-0.001 -0.0098,0 l -0.002,0.002 c -0.01625,0.008 -0.03396,0.01 -0.05078,0.0176 0.02161,-0.004 -0.01195,-0.003 -0.03906,0 -0.0084,0.005 -0.01626,0.0109 -0.02539,0.0137 2.761315,1.26648 5.697122,2.23653 8.863281,2.91796 v -0.002 c 14.128864,3.04093 30.23056,-2.65119 39.046875,-13.804687 7.803538,-9.872197 9.983219,-22.601265 6.128906,-34.302734 z m -45.166015,0.441406 c 1.982464,-0.07937 3.491642,0.231018 6.353515,1.304687 1.59738,0.599282 1.668608,0.634907 2.007813,1.046876 0.617163,0.749763 0.680852,1.652428 0.18164,2.568359 -0.244422,0.448441 -0.935745,0.986918 -1.296875,1.009765 -0.116636,0.0076 -0.879521,-0.232529 -1.693359,-0.535156 -0.813831,-0.302362 -1.597477,-0.58805 -1.742188,-0.634765 -0.144699,-0.04687 -0.508011,-0.166602 -0.808593,-0.265625 -0.30051,-0.09902 -0.565962,-0.152842 -0.587891,-0.121094 -0.02192,0.03402 -0.119134,0.0158 -0.216797,-0.03711 -0.166412,-0.08655 -0.174813,-0.08011 -0.11914,0.105469 0.0325,0.109229 0.524728,0.970617 1.091797,1.914063 1.423007,2.367534 1.484721,2.491782 1.412109,2.882812 -0.07582,0.408454 -0.345675,0.675359 -0.714844,0.707032 -0.246236,0.02268 -0.314475,-0.02599 -0.630859,-0.40625 -0.194835,-0.236599 -0.380497,-0.510591 -0.414063,-0.607422 -0.03364,-0.09676 -0.685479,-1.183588 -1.447265,-2.416016 -1.009282,-1.632794 -1.427724,-2.248303 -1.542969,-2.267578 -0.087,-0.01512 -0.276019,0.04027 -0.421875,0.123047 -0.145814,0.08315 -0.320905,0.125615 -0.388672,0.0957 -0.06773,-0.03024 -0.210882,-0.0059 -0.316406,0.05078 -0.1056,0.05669 -0.422732,0.212349 -0.707032,0.347656 -0.284277,0.13493 -0.516034,0.268088 -0.513671,0.294922 0.0023,0.03024 0.444912,0.773631 0.982421,1.660157 2.77482,4.576157 2.645601,4.290282 2.181641,4.878906 -0.221707,0.281197 -0.307725,0.324339 -0.597656,0.292968 -0.186369,-0.02268 -0.354414,-0.05746 -0.373047,-0.08203 -0.01881,-0.02633 -0.09765,-0.1598 -0.175781,-0.300781 -0.07886,-0.143139 -0.272515,-0.422676 -0.429688,-0.621094 -0.157379,-0.199181 -0.280984,-0.402769 -0.27539,-0.455078 0.0053,-0.05254 -0.243479,-0.496577 -0.552735,-0.986328 -0.309278,-0.489713 -0.628431,-1.011961 -0.708984,-1.160156 -0.08058,-0.148158 -0.340219,-0.574756 -0.578125,-0.947266 -0.237921,-0.372283 -0.523274,-0.83484 -0.632813,-1.029297 -0.194192,-0.344693 -0.209919,-0.353828 -0.654296,-0.339843 -0.668527,0.02268 -1.206759,-0.371353 -1.472657,-1.072266 -0.282784,-0.745285 -0.18268,-1.665391 0.25,-2.291016 0.244385,-0.353386 1.384305,-1.269261 1.998047,-1.605468 0.552752,-0.302741 1.614169,-0.732433 2.119141,-0.857422 0.308069,-0.07597 0.588574,-0.154616 0.623047,-0.175782 0.03439,-0.02268 0.399496,-0.05173 0.8125,-0.06836 z m 22.859375,1.449219 c -0.179117,0.0064 -0.452843,0.08237 -0.923829,0.232422 -0.48051,0.152693 -1.458138,0.717147 -1.449218,0.835937 0.0024,0.04649 0.611758,1.07417 1.351562,2.283203 0.739805,1.208996 1.984611,3.261108 2.767578,4.560547 0.782967,1.299515 1.471848,2.399385 1.529297,2.443359 0.06841,0.05291 0.211342,-0.03747 0.417969,-0.257812 v -0.002 c 0.315969,-0.340158 0.480519,-0.61153 1.015625,-1.677735 0.240756,-0.479716 0.272413,-0.609592 0.183594,-0.761718 -0.789808,-1.35549 -4.346759,-7.215144 -4.533203,-7.46875 -0.09543,-0.129827 -0.180259,-0.193878 -0.359375,-0.1875 z m 2.109375,0.03125 c -0.04649,0.0189 0.300517,0.660288 0.771484,1.423828 0.471005,0.763464 1.206621,1.985319 1.634766,2.714844 0.844951,1.439735 0.991727,1.644149 1.023437,1.421875 0.08315,-0.581859 0.223539,-2.695177 0.226563,-3.408203 0.0024,-0.645468 -0.03827,-0.910758 -0.154297,-1.025391 -0.272882,-0.26948 -3.256095,-1.228623 -3.501953,-1.126953 z m -5.619141,2.072265 c -0.02308,-0.0039 -0.04764,3.34e-4 -0.07617,0.01172 -0.339401,0.135685 -1.510558,2.053639 -1.570312,2.572266 -0.01134,0.08391 0.95374,1.743311 2.140625,3.6875 1.186922,1.944189 2.220894,3.653668 2.298828,3.796875 0.07748,0.143622 0.1589,0.280184 0.179687,0.30664 0.02268,0.02646 0.294276,1.62e-4 0.609375,-0.05859 h 0.002 c 0.622111,-0.117166 1.665867,-0.543407 1.94336,-0.792969 0.173102,-0.155717 0.174001,-0.155608 -0.976563,-2.027344 -2.736453,-4.451679 -4.1208,-6.745221 -4.300781,-7.126953 -0.123307,-0.262205 -0.180746,-0.357446 -0.25,-0.369141 z M 62.490234,69.6875 c -0.15874,0.0189 -0.357015,4.284907 -0.205078,4.433594 0.03774,0.03774 0.58154,0.245975 1.207032,0.46289 h 0.002 c 1.265902,0.439419 2.324727,0.696056 2.314453,0.558594 -0.0076,-0.07824 -0.928808,-1.631612 -2.742188,-4.613281 -0.28422,-0.466999 -0.542874,-0.845879 -0.576172,-0.841797 z M 47.548828,83.050781 c -0.07763,0.05681 -0.149481,0.400873 -0.152344,0.81836 -0.0017,0.246425 -0.02291,0.475107 -0.04687,0.509765 -0.02381,0.0378 -0.03358,0.303206 -0.02148,0.595703 0.01209,0.292914 0.01291,0.654388 -0.002,0.802735 -0.01398,0.148157 -0.01744,0.335209 -0.0078,0.416015 0.0102,0.08088 0.0014,0.293274 -0.01758,0.470703 -0.0429,0.401726 0.175911,0.64017 0.761719,0.828126 h 0.002 c 1.314868,0.4217 2.432152,0.713533 2.478516,0.646484 0.07011,-0.100914 -0.496538,-1.112176 -1.792969,-3.197266 -0.581737,-0.935622 -1.088237,-1.765551 -1.125,-1.84375 -0.02477,-0.05272 -0.05029,-0.06584 -0.07617,-0.04687 z m -9.158203,5.982422 -0.519531,0.08789 c -0.699561,0.118299 -1.7294,0.578206 -1.953125,0.873047 -0.172158,0.227149 -0.168207,0.25635 0.06055,0.58789 0.249637,0.361701 4.794636,7.810404 5.179687,8.488281 0.119736,0.21052 0.254948,0.379902 0.298828,0.376954 0.04369,-0.0026 0.289777,-0.264778 0.546875,-0.582032 0.490534,-0.605404 1.091914,-1.802981 1.025391,-2.041015 -0.01814,-0.06576 -0.668126,-1.170908 -1.443359,-2.455078 -0.775257,-1.284133 -1.811532,-3.010451 -2.302735,-3.835938 z m 1.722656,0.04102 1.654297,2.701172 c 0.910632,1.485996 1.708219,2.756086 1.771484,2.822265 0.108246,0.111874 0.118421,0.09241 0.173829,-0.308594 0.0641,-0.464825 0.168798,-2.897051 0.15625,-3.632812 l -0.0078,-0.455078 -0.433594,-0.189453 c -0.578479,-0.252095 -2.268495,-0.761485 -2.849609,-0.859375 z m -5.566406,2.085937 c -0.04955,0.0084 -0.114196,0.06334 -0.220703,0.169922 -0.305839,0.306142 -0.970886,1.420921 -1.216797,2.039063 l -0.185547,0.466797 0.902344,1.484374 c 0.497216,0.816756 1.525196,2.509536 2.283203,3.759766 0.758018,1.250232 1.425253,2.321032 1.482422,2.380862 0.05726,0.0597 0.387637,0.0539 0.734375,-0.0156 v 0.004 c 0.346734,-0.0669 0.742608,-0.20251 0.880859,-0.30078 0.13818,-0.099 0.272686,-0.16053 0.296875,-0.13672 0.03863,0.0382 0.634265,-0.31175 0.705078,-0.41406 0.0548,-0.0786 -0.255947,-0.611663 -2.814453,-4.832035 -1.436447,-2.369499 -2.658505,-4.391942 -2.716797,-4.494141 -0.04609,-0.08107 -0.08131,-0.11969 -0.130859,-0.111328 z m -2.095703,4.742188 c -0.09891,-0.09789 -0.306573,2.775703 -0.28125,3.896484 l 0.01367,0.623052 0.310547,0.12695 c 0.170494,0.0707 0.560143,0.21852 0.865234,0.32812 0.464629,0.16592 1.045966,0.32274 2.185547,0.5918 0.09434,0.0227 0.187264,0.0203 0.207031,-0.01 0.01965,-0.0302 -0.268209,-0.53695 -0.640625,-1.1289 -0.372435,-0.591989 -0.833682,-1.341179 -1.023437,-1.664064 -0.189733,-0.322772 -0.625833,-1.067551 -0.970703,-1.65625 -0.34492,-0.5887 -0.64541,-1.087164 -0.666016,-1.107422 z m -3.962891,2.255859 c 5.35e-4,1.13e-4 -9.87e-4,-0.0023 0.0078,0.0078 0.0015,-0.0017 0.0025,-0.0025 0.0039,-0.0039 -0.0036,-8.37e-4 -0.0087,-0.0029 -0.01172,-0.0039 z m 0.01953,0.0039 c -7.48e-4,0.0026 -0.0033,0.008 -0.0039,0.0098 0.01374,0.01509 0.03413,0.03981 0.0293,0.02734 -0.0051,-0.01443 -0.01398,-0.02552 -0.02344,-0.03711 0,0 -0.002,0 -0.002,0 z m -0.21289,0.722657 c -0.0039,0.01162 -0.0033,0.02586 -0.01367,0.0293 -0.0068,0.0022 0.03711,-0.107977 0.01367,-0.01953 3.34e-4,-0.0035 -2.03e-4,-0.0064 0,-0.0098 z m 1.253906,0.261718 c -9.82e-4,0.003 -9.53e-4,0.0071 -0.002,0.0098 0.0046,0.0014 0.0079,-2.13e-4 0.01172,0 0.01719,9.4e-4 0.03525,2.89e-4 0.05273,0 0.01128,0.0096 -0.02512,-0.01286 -0.05859,-0.0098 -0.0017,1.73e-4 -0.0023,-1.38e-4 -0.0039,0 z m -0.332031,2.369136 c -0.0024,0.007 -0.0052,0.01 -0.0059,0.0117 4.47e-4,-0.003 0.0035,-9e-4 0.0039,-0.004 0.0014,-10e-4 6.76e-4,-0.004 0.002,-0.008 z m 0.189453,0.13086 c -0.0022,-6e-4 -9.86e-4,0.008 0,0.008 0.0013,-0.003 0.0028,-0.005 0.0039,-0.008 -0.0022,-5.9e-4 -0.0017,6.2e-4 -0.0039,0 z m 2.101562,1.51368 c -0.0064,-0.002 -0.01468,0.002 -0.02148,0.002 0.0021,4.8e-4 0.0037,0.002 0.0059,0.002 0.009,0.002 0.0158,-7.2e-4 0.02344,0 -0.0027,-0.001 -0.0049,-0.003 -0.0078,-0.004 z m 5.105469,2.64648 c -0.0012,5e-4 -0.0028,0.002 -0.0039,0.002 0.0018,0.0128 0.0038,0.0249 0.0059,0.041 l 0.002,-0.002 c -0.002,-0.0136 -0.0024,-0.0273 -0.0039,-0.041 z m 0.0039,0.0488 c 0.0017,0.0121 0.0059,0.0495 0.0059,0.0371 1.9e-5,-0.0124 -0.0022,-0.0247 -0.0039,-0.0371 z" />
  </g>
</svg>
