<svg width="70" height="83" xmlns="http://www.w3.org/2000/svg">
 <title>14</title>

 <g>
  <title>Layer 1</title>
  <g id="svg_1">
   <path d="m66.6,28.1a2,2 0 0 0 -0.6,-1.4l-25.1,-25a2,2 0 0 0 -1.4,-0.6l-25.1,0a11,11 0 0 0 -11,11l0,57.8a11,11 0 0 0 11,11l41.2,0a11,11 0 0 0 11,-11l0,-41.8zm-24.9,-20l17.9,17.9l-9.9,0a8,8 0 0 1 -8,-8l0,-9.9zm20.9,61.8a7,7 0 0 1 -7,7l-41.2,0a7,7 0 0 1 -7,-7l0,-57.8a7,7 0 0 1 7,-7l23.3,0l0,12.9a12,12 0 0 0 12,12l12.9,0l0,39.9z" id="svg_2"/>
  </g>
  <text x="79.3259" y="153.66304" fill="#000000" font-size="5px" font-weight="bold" font-family="'Helvetica Neue', Helvetica, Arial-Unicode, Arial, Sans-serif" id="svg_3">Created by Aiden Icons</text>
  <text x="98.65742" y="175.66145" fill="#000000" font-size="5px" font-weight="bold" font-family="'Helvetica Neue', Helvetica, Arial-Unicode, Arial, Sans-serif" id="svg_4">from the Noun Project</text>
 </g>
</svg>